# xmcd
#
# Track frame offsets:
#	150
#	14586
#	27764
#	43399
#	57765
#	68982
#	83900
#	98010
#	109554
#	123848
#	135844
#	154217
#	167716
#	179288
#
# Disc length: 2550 seconds
#
# Revision: 1
# Processed by: cddbd v1.5.1PL0 Copyright (c) Steve Scherf et al.
# Submitted via: audiograbber 1.83.01
#
DISCID=af09f40e
DTITLE=Candye Kane - White Trash Girl
DYEAR=2005
DGENRE=Blues
TTITLE0=White Trash Girl
TTITLE1=Estrogen Bomb
TTITLE2=What Happened To The Girl
TTITLE3=What A Day For A Daydream
TTITLE4=Big Fat Mamas Are Back In Style
TTITLE5=Queen Of The Wrecking Ball
TTITLE6=Misunderstood
TTITLE7=I Wanna Do More
TTITLE8=It Must Be Love
TTITLE9=Work What You Got
TTITLE10=I Could Fall For You
TTITLE11=Mistress Carmen
TTITLE12=Masturbation Blues
TTITLE13=Let There Be Peace On Earth
EXTD=
EXTT0=
EXTT1=
EXTT2=
EXTT3=
EXTT4=
EXTT5=
EXTT6=
EXTT7=
EXTT8=
EXTT9=
EXTT10=
EXTT11=
EXTT12=
EXTT13=
PLAYORDER=
